<?xml version="1.0" encoding="utf-8"?>
<!-- Generator: Adobe Illustrator 19.0.1, SVG Export Plug-In . SVG Version: 6.00 Build 0)  -->
<!DOCTYPE svg PUBLIC "-//W3C//DTD SVG 1.1//EN" "http://www.w3.org/Graphics/SVG/1.1/DTD/svg11.dtd">
<svg version="1.1" id="drinks" xmlns="http://www.w3.org/2000/svg" xmlns:xlink="http://www.w3.org/1999/xlink" x="0px" y="0px"
	 width="512px" height="512px" viewBox="0 0 512 512" enable-background="new 0 0 512 512" xml:space="preserve">
<g id="Booze">
	<g>
		<g>
			<path fill="#EFEBE9" d="M454.6,88.4C454.6,49.5,365.7,18,256,18S57.4,49.5,57.4,88.4c0,2.2,0.3,4.3,0.8,6.5l40.2,343.3
				C98.5,469,169,494,256,494s157.5-25,157.5-55.8l40.2-343.3C454.3,92.7,454.6,90.6,454.6,88.4z"/>
		</g>
		<g>
			<path fill="#FFA726" d="M406.7,232.7c0,0-2.8-56.4-114.3-26.6c-106.3,28.4-114.5-10.7-166.4-53.9c-36.6-30.5-35.6,1.5-35.6,1.5
				L121,330.5c12.9,22.3,68.4,39,135,39s122.2-16.7,135-39L406.7,232.7z"/>
			<path fill="#546E7A" d="M256,370c-65.4,0-122.3-16.5-135.5-39.3l-0.1-0.2L89.8,153.7c0-0.5-0.3-10.9,6.5-14.3
				c6.3-3.1,16.4,1.1,29.9,12.3c9.9,8.3,18.1,16.2,26,23.9c32.7,31.8,54.2,52.8,140,29.9c32.2-8.6,75.6-15.1,99.9,2.6
				c14.2,10.4,15.1,24.4,15.1,24.5l0,0.1l0,0.1l-15.6,97.9l0,0.1C378.3,353.5,321.4,370,256,370z M121.4,330.4
				C134.5,352.8,191,369,256,369s121.5-16.3,134.6-38.7l15.6-97.7c-0.1-0.9-1.3-14-14.7-23.7c-23.9-17.4-67.1-10.9-99-2.4
				c-86.3,23.1-108,1.9-141-30.2c-7.9-7.7-16-15.6-25.9-23.8c-13.2-11-22.9-15.1-28.8-12.2c-6.2,3-6,13.2-6,13.3L121.4,330.4z"/>
		</g>
		<g>
			<path fill="#BCAAA4" d="M406.7,232.7c0,0-2.8-56.4-114.3-26.6c-106.3,28.4-114.5-10.7-166.4-53.9c-36.6-30.5-35.6,1.5-35.6,1.5
				s6.7,63.3,61.8,82.3c54.7,18.8,115.7-13.7,142.9-19.7C350.8,203.9,401.1,270.4,406.7,232.7z"/>
		</g>
		<g>
			<path fill="#FFCC80" d="M406.7,232.7c0,0-2.8-56.4-114.3-26.6c-106.3,28.4-114.5-10.7-166.4-53.9c-36.6-30.5-35.6,1.5-35.6,1.5
				s6.7,63.3,61.8,82.3c54.7,18.8,115.7-13.7,142.9-19.7C350.8,203.9,401.1,270.4,406.7,232.7z"/>
		</g>
	</g>
	<g>
		<g>
			<path fill="#A1887F" d="M397.6,437.3c-1.1,0-2-0.9-2-2c0-12.3-14.6-24.6-40.1-33.6c-26.5-9.4-61.8-14.6-99.4-14.6
				c-39.2,0-77,5.9-103.5,16.1c-23.3,9-36.1,20.4-36.1,32.1c0,1.1-0.9,2-2,2s-2-0.9-2-2c0-13.5,13.7-26.2,38.6-35.8
				c27-10.4,65.2-16.3,104.9-16.3c38,0,73.8,5.3,100.8,14.8c27.6,9.8,42.8,23.1,42.8,37.4C399.6,436.4,398.7,437.3,397.6,437.3z"/>
		</g>
		<g>
			<path fill="#546E7A" d="M256,498c-42.5,0-82.6-5.9-112.7-16.6c-31.5-11.2-48.8-26.5-48.8-43.3h8c0,25,61.7,51.8,153.5,51.8
				s153.5-26.8,153.5-51.8h8c0,16.7-17.3,32.1-48.8,43.3C338.6,492.1,298.5,498,256,498z"/>
		</g>
		<g>
			<path fill="#8D6E63" d="M256,145.3c-48.5,0-94.1-5.7-128.4-16.2c-35-10.7-54.4-25.1-54.4-40.8c0-1.1,0.9-2,2-2s2,0.9,2,2
				c0,13.5,18.8,27,51.5,36.9c34,10.3,79.1,16,127.2,16s93.3-5.7,127.2-16c32.7-10,51.5-23.4,51.5-36.9c0-1.1,0.9-2,2-2s2,0.9,2,2
				c0,15.6-19.3,30.1-54.4,40.8C350.1,139.6,304.5,145.3,256,145.3z"/>
		</g>
		<g>
			<path fill="#A1887F" d="M256,373.5c-67.6,0-124.6-16.9-138.5-41l-0.4-0.6l-0.1-0.7L86.3,154l0-0.3c0-0.5-0.3-13.1,8.5-17.5
				c7.8-3.8,18.8,0.4,33.7,12.8c10,8.4,18.6,16.7,26.2,24.1c16.4,15.9,29.3,28.5,48.6,34.6c21,6.6,48.9,4.9,88-5.6
				c47.9-12.8,82.5-11.7,102.8,3.1c15.5,11.3,16.5,26.5,16.5,27.2l0,0.4l-0.1,0.4l-15.7,98.6l-0.4,0.6
				C380.6,356.7,323.6,373.5,256,373.5z M124.8,329.1c6,9.7,21.8,18.8,44.7,25.4c24.2,7.1,55,11,86.6,11s62.3-3.9,86.6-11
				c22.8-6.7,38.6-15.7,44.7-25.4l15.4-96.6c-0.2-2.1-1.9-12.7-13.4-20.9c-22.9-16.5-64.8-10-95.9-1.7c-41.2,11-69.7,12.7-92.5,5.5
				c-21.2-6.7-35.4-20.5-51.8-36.5c-7.8-7.6-15.9-15.5-25.7-23.7c-16.4-13.6-22.9-12.7-25-11.7c-3.3,1.6-4,7.5-4,9.8L124.8,329.1z"
				/>
		</g>
		<g>
			<path fill="#A1887F" d="M396.5,246.4c-7,0-16.4-4.8-27.7-10.6c-20.6-10.5-46.2-23.7-73.4-17.7c-6.2,1.4-14.3,4.2-23.6,7.4
				c-30.9,10.7-77.7,26.9-120.3,12.2c-29.2-10-44.8-32.3-52.8-49.3c-8.6-18.3-10.3-34-10.4-34.7l0-0.1c0-0.5-0.3-11.8,7.4-15.6
				c6.9-3.4,17.5,0.8,31.5,12.5c10,8.3,18.2,16.3,26.1,24c32.3,31.5,53.6,52.3,138.6,29.6c47.3-12.6,81.3-11.7,101.1,2.8
				c14.8,10.8,15.7,25,15.7,25.6l0,0.2l0,0.2c-0.9,6.4-3.2,10.4-6.8,12.2C400.2,246,398.5,246.4,396.5,246.4z M309.3,212.7
				c23.2,0,44.8,11.1,61.4,19.6c12.8,6.6,23.9,12.2,29.3,9.4c2.4-1.2,3.9-4.2,4.7-9c-0.2-1.6-1.7-13.5-14.1-22.5
				c-13-9.4-40.4-17.4-97.7-2.1c-40.8,10.9-68.9,12.6-91.4,5.5c-20.7-6.6-34.8-20.2-51-36.1c-7.9-7.7-16-15.6-25.8-23.8
				c-15.8-13.2-23.5-13.8-27.2-12c-5.1,2.5-5.2,10.9-5.2,11.8c0.3,2.5,8.1,62.5,60.5,80.5c41.3,14.2,87.3-1.7,117.7-12.2
				c9.5-3.3,17.7-6.1,24.1-7.5C299.5,213.1,304.4,212.7,309.3,212.7z"/>
		</g>
		<g opacity="0.5">
			<path fill="#FFFFFF" d="M452.5,88.4c0-37.9-88-68.7-196.5-68.7S59.5,50.5,59.5,88.4c0,15.7,13.6,33.4,27,39.4
				c0,0,27.9,35.2,17.8,106.8c-9.2,65.7,52.7,115.2,47.3,216.8c-0.4,7.3,7.4,12.5,14.3,14.6c5.9,1.8,9,2.9,19.4,4.3
				c9.3,1.3,17.6-6.1,17.2-15.5c-2.5-64.9-37.7-170.9-25.5-234c11.5-59.9,2.2-49.4,0.6-69.6c24,3.7,50.5,5.7,78.4,5.7
				c72.6,0,136-13.8,170-34.2c-3,25.8-22.2,189.9-31.1,262.3c-6.5,53-18.8,59.9-41.3,80.9c24-6,44-23.7,44-23.7l38.8-326.6
				C446.7,107.3,452.5,98.1,452.5,88.4z M69.4,88.4c0-33.1,83.5-59.9,186.6-59.9s186.6,26.8,186.6,59.9c0,33.1-83.5,59.9-186.6,59.9
				S69.4,121.5,69.4,88.4z"/>
		</g>
		<g opacity="0.5">
			<path fill="#FFFFFF" d="M64.5,88.4c-0.7-30.4,50.4-45.7,56.1-49.8C83,51.1,59.5,68.8,59.5,88.4c0,14.7-1.1,21.5,30.8,34.6
				c4,1.6,5.5,5.8,7.9,9.3c10.8,15.3,25.4,34.7,19.6,81.3c-10.4,83.9,40.5,124.7,40.7,241.3c0,4.8,4.9,8.2,9.5,9.3
				c1.9,0.5,4,1,6.3,1.5c8.9,1.9,17-5.5,15.9-14.5c-7.6-63-38.9-142.7-32.7-213.7c3.6-41.1,1.2-62-1.1-76.5
				c-1.4-8.8,6.1-16.4,14.9-15.2c75.9,10.1,107.4,3.2,109.5,2.2c0.2-0.1,0.4-0.2,0.6-0.3c-8.4,0.4-16.9,0.6-25.6,0.6
				C153,148.3,65.2,121.5,64.5,88.4z"/>
		</g>
		<g>
			<path fill="#8D6E63" d="M256,502c-43,0-83.5-6-114.1-16.8C109,473.5,90.8,457,90.5,438.7L50.4,96.3c-0.6-2.6-1-5.3-1-7.9
				c0-22.4,22.5-42.8,63.5-57.3C151.3,17.5,202.1,10,256,10s104.7,7.5,143.1,21.1c40.9,14.5,63.5,34.9,63.5,57.3
				c0,2.6-0.3,5.3-1,7.9l-40.1,342.4c-0.3,18.4-18.6,34.9-51.5,46.5C339.5,496,299,502,256,502z M256,26
				c-52.2,0-101.1,7.2-137.7,20.2C85.2,57.9,65.4,73.7,65.4,88.4c0,1.4,0.2,3,0.6,4.5l0.1,0.5l0.1,0.5l40.2,343.7v0.5
				c0,10.9,15.3,22.9,40.8,31.9C176.2,480.4,214.8,486,256,486s79.8-5.6,108.7-15.9c25.6-9.1,40.8-21,40.8-31.9v-0.5l0.1-0.5
				l40.3-343.8l0.1-0.5c0.4-1.5,0.6-3,0.6-4.5c0-14.7-19.8-30.5-52.8-42.2C357.1,33.2,308.2,26,256,26z"/>
		</g>
	</g>
</g>
</svg>
